# 
# Wavefront OBJ file
# Converted by the DEEP Exploration Deep Exploration 6.3 6.3.1.7958
# Right Hemisphere, LTD
# http://www.righthemisphere.com/
# 
mtllib 3Dmodels/pgn/model.mtl
# object box
g box
v -7.60000 8.00000 1.00000
v -7.40000 8.00000 -1.00000
v -7.60000 8.00000 -1.00000
v -7.40000 8.00000 1.00000
v -7.40000 10.00000 1.00000
v -7.60000 10.00000 -1.00000
v -7.40000 10.00000 -1.00000
v -7.60000 10.00000 1.00000
v -7.60000 10.00000 -1.00000
v -7.40000 10.00000 -1.00000
v -7.60000 8.00000 -1.00000
v -7.60000 8.00000 1.00000
v -7.40000 10.00000 1.00000
v -7.60000 10.00000 1.00000
v -7.60000 8.00000 1.00000
v -7.60000 10.00000 -1.00000
v -7.60000 8.00000 -1.00000
v -7.40000 8.00000 -1.00000
v -7.40000 10.00000 -1.00000
v -7.40000 8.00000 1.00000
# 20 verticies
vn 0.00000 -1.00000 0.00000
vn 0.00000 -0.70711 -0.70711
vn 0.00000 -0.70711 0.70711
vn 0.70711 0.70711 0.00000
vn 0.00000 1.00000 0.00000
vn -0.70711 0.70711 0.00000
vn 0.00000 0.00000 -1.00000
vn 0.00000 0.00000 1.00000
vn -1.00000 0.00000 0.00000
vn 1.00000 0.00000 0.00000
# 10 normals
usemtl ac3dmat2
f  3//1 2//2 1//1
f  4//3 1//1 2//2
f  7//5 6//5 5//4
f  8//6 5//4 6//5
f  10//7 2//2 9//7
f  11//7 9//7 2//2
f  4//3 13//8 12//8
f  14//8 12//8 13//8
f  8//6 16//9 15//9
f  17//9 15//9 16//9
f  19//10 5//4 18//10
f  20//10 18//10 5//4
# object box0000000
g box0000000
v -7.40000 8.00000 -1.00000
v -7.40000 10.00000 1.00000
v -7.40000 10.00000 -1.00000
v -7.40000 8.00000 1.00000
v -7.60000 8.00000 1.00000
v -7.60000 10.00000 -1.00000
v -7.60000 10.00000 1.00000
v -7.60000 8.00000 -1.00000
v -7.60000 8.00000 1.00000
v -7.40000 10.00000 1.00000
v -7.40000 8.00000 1.00000
v -7.60000 10.00000 1.00000
v -7.60000 10.00000 -1.00000
v -7.40000 8.00000 -1.00000
v -7.40000 10.00000 -1.00000
v -7.60000 8.00000 -1.00000
v -7.60000 10.00000 -1.00000
v -7.40000 10.00000 -1.00000
v -7.60000 8.00000 1.00000
v -7.60000 8.00000 -1.00000
# 20 verticies
vn 1.00000 0.00000 0.00000
vn 0.70711 0.70711 0.00000
vn -1.00000 0.00000 0.00000
vn -0.70711 0.70711 0.00000
vn 0.00000 0.00000 1.00000
vn 0.00000 -0.70711 0.70711
vn 0.00000 0.00000 -1.00000
vn 0.00000 -0.70711 -0.70711
vn 0.00000 1.00000 0.00000
vn 0.00000 -1.00000 0.00000
# 10 normals
f  23//11 22//12 21//11
f  24//11 21//11 22//12
f  27//14 26//13 25//13
f  28//13 25//13 26//13
f  31//16 30//15 29//15
f  32//15 29//15 30//15
f  35//17 34//18 33//17
f  36//17 33//17 34//18
f  38//19 37//19 22//12
f  27//14 22//12 37//19
f  40//20 34//18 39//20
f  31//16 39//20 34//18
# object box0000001
g box0000001
v 7.60000 8.00000 -1.00000
v 7.60000 10.00000 1.00000
v 7.60000 10.00000 -1.00000
v 7.60000 8.00000 1.00000
v 7.40000 8.00000 1.00000
v 7.40000 10.00000 -1.00000
v 7.40000 10.00000 1.00000
v 7.40000 8.00000 -1.00000
v 7.40000 8.00000 1.00000
v 7.60000 10.00000 1.00000
v 7.60000 8.00000 1.00000
v 7.40000 10.00000 1.00000
v 7.40000 10.00000 -1.00000
v 7.60000 8.00000 -1.00000
v 7.60000 10.00000 -1.00000
v 7.40000 8.00000 -1.00000
v 7.40000 10.00000 -1.00000
v 7.60000 10.00000 -1.00000
v 7.40000 8.00000 1.00000
v 7.40000 8.00000 -1.00000
# 20 verticies
vn 1.00000 0.00000 0.00000
vn 0.70711 0.70711 0.00000
vn -1.00000 0.00000 0.00000
vn -0.70711 0.70711 0.00000
vn 0.00000 0.00000 1.00000
vn 0.00000 -0.70711 0.70711
vn 0.00000 0.00000 -1.00000
vn 0.00000 -0.70711 -0.70711
vn 0.00000 1.00000 0.00000
vn 0.00000 -1.00000 0.00000
# 10 normals
f  43//21 42//22 41//21
f  44//21 41//21 42//22
f  47//24 46//23 45//23
f  48//23 45//23 46//23
f  51//26 50//25 49//25
f  52//25 49//25 50//25
f  55//27 54//28 53//27
f  56//27 53//27 54//28
f  58//29 57//29 42//22
f  47//24 42//22 57//29
f  60//30 54//28 59//30
f  51//26 59//30 54//28
# object box0000002
g box0000002
v -7.50000 0.00000 5.00000
v 7.50000 0.00000 -5.00000
v -7.50000 0.00000 -5.00000
v 7.50000 0.00000 5.00000
v 7.50000 10.00000 5.00000
v -7.50000 10.00000 -5.00000
v 7.50000 10.00000 -5.00000
v -7.50000 10.00000 5.00000
v -7.50000 10.00000 -5.00000
v 7.50000 10.00000 -5.00000
v -7.50000 0.00000 -5.00000
v -7.50000 0.00000 5.00000
v 7.50000 10.00000 5.00000
v -7.50000 10.00000 5.00000
v -7.50000 0.00000 5.00000
v -7.50000 10.00000 -5.00000
v -7.50000 0.00000 -5.00000
v 7.50000 0.00000 -5.00000
v 7.50000 10.00000 -5.00000
v 7.50000 0.00000 5.00000
# 20 verticies
vn 0.00000 -1.00000 0.00000
vn 0.00000 -0.70711 -0.70711
vn 0.00000 -0.70711 0.70711
vn 0.70711 0.70711 0.00000
vn 0.00000 1.00000 0.00000
vn -0.70711 0.70711 0.00000
vn 0.00000 0.00000 -1.00000
vn 0.00000 0.00000 1.00000
vn -1.00000 0.00000 0.00000
vn 1.00000 0.00000 0.00000
# 10 normals
usemtl ac3dmat20
f  63//31 62//32 61//31
f  64//33 61//31 62//32
f  67//35 66//35 65//34
f  68//36 65//34 66//35
f  70//37 62//32 69//37
f  71//37 69//37 62//32
f  64//33 73//38 72//38
f  74//38 72//38 73//38
f  68//36 76//39 75//39
f  77//39 75//39 76//39
f  79//40 65//34 78//40
f  80//40 78//40 65//34
# object box0000003
g box0000003
v -7.50000 9.90000 1.00000
v 7.50000 9.90000 -1.00000
v -7.50000 9.90000 -1.00000
v 7.50000 9.90000 1.00000
v 7.50000 10.10000 1.00000
v -7.50000 10.10000 -1.00000
v 7.50000 10.10000 -1.00000
v -7.50000 10.10000 1.00000
v -7.50000 10.10000 -1.00000
v 7.50000 10.10000 -1.00000
v -7.50000 9.90000 -1.00000
v -7.50000 9.90000 1.00000
v 7.50000 10.10000 1.00000
v -7.50000 10.10000 1.00000
v -7.50000 9.90000 1.00000
v -7.50000 10.10000 -1.00000
v -7.50000 9.90000 -1.00000
v 7.50000 9.90000 -1.00000
v 7.50000 10.10000 -1.00000
v 7.50000 9.90000 1.00000
# 20 verticies
vn 0.00000 -1.00000 0.00000
vn 0.00000 -0.70711 -0.70711
vn 0.00000 -0.70711 0.70711
vn 0.70711 0.70711 0.00000
vn 0.00000 1.00000 0.00000
vn -0.70711 0.70711 0.00000
vn 0.00000 0.00000 -1.00000
vn 0.00000 0.00000 1.00000
vn -1.00000 0.00000 0.00000
vn 1.00000 0.00000 0.00000
# 10 normals
usemtl ac3dmat2
f  83//41 82//42 81//41
f  84//43 81//41 82//42
f  87//45 86//45 85//44
f  88//46 85//44 86//45
f  90//47 82//42 89//47
f  91//47 89//47 82//42
f  84//43 93//48 92//48
f  94//48 92//48 93//48
f  88//46 96//49 95//49
f  97//49 95//49 96//49
f  99//50 85//44 98//50
f  100//50 98//50 85//44
# object box0000004
g box0000004
v 7.40000 8.00000 1.00000
v 7.60000 8.00000 -1.00000
v 7.40000 8.00000 -1.00000
v 7.60000 8.00000 1.00000
v 7.60000 10.00000 1.00000
v 7.40000 10.00000 -1.00000
v 7.60000 10.00000 -1.00000
v 7.40000 10.00000 1.00000
v 7.40000 10.00000 -1.00000
v 7.60000 10.00000 -1.00000
v 7.40000 8.00000 -1.00000
v 7.40000 8.00000 1.00000
v 7.60000 10.00000 1.00000
v 7.40000 10.00000 1.00000
v 7.40000 8.00000 1.00000
v 7.40000 10.00000 -1.00000
v 7.40000 8.00000 -1.00000
v 7.60000 8.00000 -1.00000
v 7.60000 10.00000 -1.00000
v 7.60000 8.00000 1.00000
# 20 verticies
vn 0.00000 -1.00000 0.00000
vn 0.00000 -0.70711 -0.70711
vn 0.00000 -0.70711 0.70711
vn 0.70711 0.70711 0.00000
vn 0.00000 1.00000 0.00000
vn -0.70711 0.70711 0.00000
vn 0.00000 0.00000 -1.00000
vn 0.00000 0.00000 1.00000
vn -1.00000 0.00000 0.00000
vn 1.00000 0.00000 0.00000
# 10 normals
f  103//51 102//52 101//51
f  104//53 101//51 102//52
f  107//55 106//55 105//54
f  108//56 105//54 106//55
f  110//57 102//52 109//57
f  111//57 109//57 102//52
f  104//53 113//58 112//58
f  114//58 112//58 113//58
f  108//56 116//59 115//59
f  117//59 115//59 116//59
f  119//60 105//54 118//60
f  120//60 118//60 105//54
# object box0000005
g box0000005
v -5.00000 5.50000 -4.90000
v -1.00000 5.50000 -5.10000
v -5.00000 5.50000 -5.10000
v -1.00000 5.50000 -4.90000
v -1.00000 8.50000 -4.90000
v -5.00000 8.50000 -5.10000
v -1.00000 8.50000 -5.10000
v -5.00000 8.50000 -4.90000
v -5.00000 8.50000 -5.10000
v -1.00000 8.50000 -5.10000
v -5.00000 5.50000 -5.10000
v -5.00000 5.50000 -4.90000
v -1.00000 8.50000 -4.90000
v -5.00000 8.50000 -4.90000
v -5.00000 5.50000 -4.90000
v -5.00000 8.50000 -5.10000
v -5.00000 5.50000 -5.10000
v -1.00000 5.50000 -5.10000
v -1.00000 8.50000 -5.10000
v -1.00000 5.50000 -4.90000
# 20 verticies
vn 0.00000 -1.00000 0.00000
vn 0.00000 -0.70711 -0.70711
vn 0.00000 -0.70711 0.70711
vn 0.70711 0.70711 0.00000
vn 0.00000 1.00000 0.00000
vn -0.70711 0.70711 0.00000
vn 0.00000 0.00000 -1.00000
vn 0.00000 0.00000 1.00000
vn -1.00000 0.00000 0.00000
vn 1.00000 0.00000 0.00000
# 10 normals
usemtl ac3dmat1
f  123//61 122//62 121//61
f  124//63 121//61 122//62
f  127//65 126//65 125//64
f  128//66 125//64 126//65
f  130//67 122//62 129//67
f  131//67 129//67 122//62
f  124//63 133//68 132//68
f  134//68 132//68 133//68
f  128//66 136//69 135//69
f  137//69 135//69 136//69
f  139//70 125//64 138//70
f  140//70 138//70 125//64
# object rect
g rect
v -3.50000 1.50000 5.10000
v 3.50000 8.50000 5.10000
v 3.50000 1.50000 5.10000
v -3.50000 8.50000 5.10000
# 4 verticies
vt 1.00000 0.00000
vt 0.00000 1.00000
vt 0.00000 0.00000
vt 1.00000 1.00000
# 4 texture verticies
vn 0.00000 0.00000 1.00000
# 1 normals
usemtl ac3dmat10
f  143/3/71 142/2/71 141/1/71
f  144/4/71 141/1/71 142/2/71
