# 
# Wavefront OBJ file
# Converted by the DEEP Exploration Deep Exploration 6.3 6.3.1.7958
# Right Hemisphere, LTD
# http://www.righthemisphere.com/
# 
mtllib 3Dmodels/tbox/model.mtl
# object box
g box
v -5.00000 0.00000 5.00000
v 5.00000 0.00000 -5.00000
v -5.00000 0.00000 -5.00000
v 5.00000 0.00000 5.00000
v 5.00000 10.00000 5.00000
v -5.00000 10.00000 -5.00000
v 5.00000 10.00000 -5.00000
v -5.00000 10.00000 5.00000
v -5.00000 10.00000 -5.00000
v 5.00000 10.00000 -5.00000
v -5.00000 0.00000 -5.00000
v -5.00000 0.00000 5.00000
v 5.00000 10.00000 5.00000
v -5.00000 10.00000 5.00000
v -5.00000 0.00000 5.00000
v -5.00000 10.00000 -5.00000
v -5.00000 0.00000 -5.00000
v 5.00000 0.00000 -5.00000
v 5.00000 10.00000 -5.00000
v 5.00000 0.00000 5.00000
# 20 verticies
vt 1.00000 1.00000
vt 0.00000 0.00000
vt 0.00000 1.00000
vt 1.00000 0.00000
# 4 texture verticies
vn 0.00000 -1.00000 0.00000
vn 0.00000 -0.70711 -0.70711
vn 0.00000 -0.70711 0.70711
vn 0.70711 0.70711 0.00000
vn 0.00000 1.00000 0.00000
vn -0.70711 0.70711 0.00000
vn 0.00000 0.00000 -1.00000
vn 0.00000 0.00000 1.00000
vn -1.00000 0.00000 0.00000
vn 1.00000 0.00000 0.00000
# 10 normals
usemtl ac3dmat1
f  3/3/1 2/2/2 1/1/1
f  4/4/3 1/1/1 2/2/2
f  7/2/5 6/4/5 5/3/4
f  8/1/6 5/3/4 6/4/5
f  10/3/7 2/2/2 9/1/7
f  11/4/7 9/1/7 2/2/2
f  4/4/3 13/1/8 12/2/8
f  14/3/8 12/2/8 13/1/8
f  8/1/6 16/3/9 15/4/9
f  17/2/9 15/4/9 16/3/9
f  19/1/10 5/3/4 18/4/10
f  20/2/10 18/4/10 5/3/4
